<?xml version="1.0" encoding="UTF-8" standalone="no"?>
<!-- Created with Inkscape (http://www.inkscape.org/) -->

<svg
   xmlns:dc="http://purl.org/dc/elements/1.1/"
   xmlns:cc="http://creativecommons.org/ns#"
   xmlns:rdf="http://www.w3.org/1999/02/22-rdf-syntax-ns#"
   xmlns:svg="http://www.w3.org/2000/svg"
   xmlns="http://www.w3.org/2000/svg"
   xmlns:sodipodi="http://sodipodi.sourceforge.net/DTD/sodipodi-0.dtd"
   xmlns:inkscape="http://www.inkscape.org/namespaces/inkscape"
   width="210mm"
   height="297mm"
   viewBox="0 0 210 297"
   version="1.1"
   id="svg8"
   inkscape:version="0.92.3 (2405546, 2018-03-11)"
   sodipodi:docname="logo.svg">
  <defs
     id="defs2" />
  <sodipodi:namedview
     id="base"
     pagecolor="#ffffff"
     bordercolor="#666666"
     borderopacity="1.0"
     inkscape:pageopacity="0.0"
     inkscape:pageshadow="2"
     inkscape:zoom="0.32060547"
     inkscape:cx="484.92008"
     inkscape:cy="497.947"
     inkscape:document-units="mm"
     inkscape:current-layer="layer1"
     showgrid="false"
     inkscape:window-width="1024"
     inkscape:window-height="688"
     inkscape:window-x="0"
     inkscape:window-y="0"
     inkscape:window-maximized="1" />
  <metadata
     id="metadata5">
    <rdf:RDF>
      <cc:Work
         rdf:about="">
        <dc:format>image/svg+xml</dc:format>
        <dc:type
           rdf:resource="http://purl.org/dc/dcmitype/StillImage" />
        <dc:title></dc:title>
      </cc:Work>
    </rdf:RDF>
  </metadata>
  <g
     inkscape:label="Camada 1"
     inkscape:groupmode="layer"
     id="layer1">
    <rect
       style="fill:#000000;fill-opacity:0.63181817;stroke:none;stroke-width:0.39316243;stroke-linecap:butt;stroke-linejoin:round;stroke-miterlimit:4;stroke-dasharray:none;stroke-dashoffset:0;stroke-opacity:1;paint-order:normal"
       id="rect1045"
       width="143.59549"
       height="180.73227"
       x="25.314634"
       y="44.930058"
       ry="29.302467" />
    <g
       id="g1055">
      <g
         transform="matrix(2.6190056,-9.6312024e-4,0.00118018,3.2092662,52.57678,60.629851)"
         id="icons"
         style="fill:#ffffff;fill-opacity:1;fill-rule:evenodd;stroke:none;stroke-width:1">
        <g
           transform="translate(-213,-549)"
           id="ui-gambling-website-lined-icnos-casinoshunter"
           style="fill:#ffffff;fill-opacity:1;fill-rule:nonzero">
          <g
             style="fill:#ffffff;fill-opacity:1"
             transform="translate(50,120)"
             id="square-filled">
            <path
               style="fill:#ffffff;fill-opacity:1"
               id="crown"
               d="m 180.91651,429.21931 c 0.42238,0.2143 0.75542,0.57088 0.93606,1.00769 l 3.79561,9.17818 7.79611,-9.49943 c 0.69415,-0.84582 1.95339,-0.97753 2.81259,-0.29418 0.46998,0.37379 0.74312,0.9367 0.74312,1.53149 v 16.90365 C 197,449.67777 195.65685,451 194,451 h -28 c -1.65685,0 -3,-1.32223 -3,-2.95329 v -16.9041 c 0,-1.08737 0.89543,-1.96886 2,-1.96886 0.60413,0 1.17588,0.26882 1.55559,0.73139 l 7.79818,9.5 3.79393,-9.17788 c 0.39652,-0.95921 1.47381,-1.44408 2.4593,-1.13403 l 0.14704,0.0525 z m -4.71025,10.92795 c -0.1275,0.30842 -0.33236,0.57997 -0.59545,0.78925 -0.85913,0.68343 -2.11838,0.55185 -2.81263,-0.2939 l -7.79818,-9.5 v 16.9041 c 0,0.54369 0.44771,0.98443 1,0.98443 h 28 c 0.55228,0 1,-0.44074 1,-0.98443 v -16.90365 l -7.7961,9.49943 c -0.21255,0.25899 -0.48834,0.46068 -0.8016,0.58622 -1.02304,0.41001 -2.19,-0.074 -2.60649,-1.08116 l -3.79562,-9.17817 z"
               inkscape:connector-curvature="0" />
          </g>
        </g>
      </g>
      <g
         transform="matrix(1.6026761,0,0,2.3327454,58.831666,136.44266)"
         id="icons-5"
         style="fill:#ffffff;fill-rule:evenodd;stroke:none;stroke-width:1;fill-opacity:1">
        <g
           transform="translate(-2286,-414)"
           id="ui-gambling-website-lined-icnos-casinoshunter-3"
           style="fill:#ffffff;fill-rule:nonzero;fill-opacity:1">
          <g
             style="fill:#ffffff;fill-opacity:1"
             transform="translate(1350,120)"
             id="1">
            <path
               style="fill:#ffffff;fill-opacity:1"
               id="casino-cards"
               d="m 971.861,297.52715 10.00417,2.68053 c 1.55986,0.41796 2.50405,1.99446 2.17593,3.57539 l -0.0417,0.17562 -5.16613,19.28026 c -0.42328,1.57968 -1.98863,2.54422 -3.55033,2.22246 l -0.17345,-0.0411 -12.38246,-3.31818 4.13071,9.9e-4 c 2.69054,0 4.88506,-2.15069 4.9987,-4.84708 l 0.005,-0.21979 -3e-5,-2.59712 3.23075,-2.01816 0.16747,-0.10821 c 0.48795,-0.34324 0.84344,-0.85063 0.99982,-1.43421 0.17477,-0.65228 0.0867,-1.3464 -0.24509,-1.92948 -0.33174,-0.58308 -0.88009,-1.00759 -1.52418,-1.18017 -0.5245,-0.14054 -1.07754,-0.10466 -1.57741,0.0966 l -0.18479,0.0832 -0.096,-0.13536 -0.13139,-0.15896 c -0.18383,-0.20467 -0.39967,-0.37726 -0.63877,-0.51099 z m -23.653,0.01 -1.1e-4,9.62724 c -0.22451,0.13062 -0.42768,0.2959 -0.60205,0.49004 l -0.13139,0.15896 -0.096,0.13536 c -0.54595,-0.27276 -1.17214,-0.33794 -1.7622,-0.17983 -0.64409,0.17258 -1.19244,0.59709 -1.52419,1.18017 -0.33174,0.58308 -0.41986,1.2772 -0.24508,1.92948 0.15637,0.58358 0.51186,1.09097 0.99982,1.43421 l 0.16747,0.10821 3.1937,1.99616 9.7e-4,2.61912 c 0,2.72472 2.12371,4.94711 4.78629,5.06219 l 0.21703,0.005 4.16571,-9.9e-4 -12.38141,3.31818 c -1.61764,0.43344 -3.28483,-0.54319 -3.72378,-2.18138 l -5.16613,-19.28026 c -0.43895,-1.63818 0.51656,-3.31757 2.1342,-3.75101 z M 967.31113,294 c 1.69934,0 3.07692,1.37758 3.07692,3.07692 v 20 c 0,1.69934 -1.37758,3.07693 -3.07692,3.07693 h -13.84615 c -1.69934,0 -3.07693,-1.37759 -3.07693,-3.07693 v -20 c 0,-1.69934 1.37759,-3.07692 3.07693,-3.07692 z m -0.76923,21.53846 h -1.53846 c -0.42483,0 -0.76923,0.3444 -0.76923,0.76923 0,0.38943 0.28939,0.71127 0.66485,0.76221 l 0.10438,0.007 h 1.53846 c 0.42483,0 0.76923,-0.34439 0.76923,-0.76923 0,-0.42483 -0.3444,-0.76923 -0.76923,-0.76923 z m 7.55055,-6.28674 c 0.25556,0.0685 0.473,0.23696 0.60483,0.46867 0.13169,0.23146 0.16661,0.50665 0.0972,0.76575 -0.0476,0.17766 -0.14148,0.33735 -0.27257,0.46521 l -0.10516,0.0897 -0.0977,0.0647 -2.45806,1.5344 v -3.162 l 0.0689,0.0751 c 0.1878,0.17659 0.45459,0.24495 0.70466,0.17937 l 0.10587,-0.0364 0.0855,-0.0432 0.50865,-0.29797 0.11805,-0.0592 c 0.20183,-0.0849 0.42679,-0.10125 0.63984,-0.0442 z m -27.43901,0.0442 0.11804,0.0592 0.50866,0.29797 0.0855,0.0432 c 0.29277,0.12559 0.6295,0.052 0.84359,-0.17606 l -0.001,3.09802 -2.42101,-1.5124 -0.0977,-0.0647 c -0.18642,-0.13884 -0.31822,-0.33283 -0.37773,-0.55491 -0.0694,-0.2591 -0.0345,-0.53429 0.0972,-0.76575 0.13184,-0.23171 0.34927,-0.4002 0.60483,-0.46867 0.21306,-0.0571 0.43801,-0.0408 0.63985,0.0442 z m 15.41419,-6.06511 c -0.49302,0 -0.97118,0.14264 -1.37944,0.40515 l -0.17053,0.11977 -0.12961,0.10612 c -0.46347,-0.40556 -1.06011,-0.63104 -1.67997,-0.63104 -0.67661,0 -1.32556,0.26866 -1.80385,0.74695 -0.47829,0.4783 -0.74694,1.12725 -0.74694,1.80387 0,0.60537 0.21517,1.18864 0.60329,1.64738 l 0.13572,0.14816 2.93261,3.10506 c 0.14498,0.1537 0.34757,0.24089 0.55914,0.24089 0.17631,0 0.34639,-0.0606 0.48218,-0.16978 l 0.0771,-0.0713 2.93851,-3.11156 c 0.46716,-0.47068 0.73294,-1.11604 0.73294,-1.78886 0,-0.67644 -0.26892,-1.32545 -0.74734,-1.80387 -0.47838,-0.47839 -1.12697,-0.74695 -1.80385,-0.74695 z m -17.48837,7.45159 0.0403,0.12973 -0.011,-0.0316 z m 30.94753,0 -0.0293,0.0982 -0.011,0.0316 z M 944.8,309.25315 l -0.025,0.04 0.0114,-0.0187 z m 30.505,0 0.0147,0.0213 0.0103,0.0187 z m -13.23737,-4.48423 c 0.26859,0 0.52631,0.10677 0.7163,0.29676 0.18969,0.18998 0.29635,0.44748 0.29635,0.71591 0,0.18407 -0.0502,0.363 -0.1429,0.51861 l -0.0774,0.11205 -0.0839,0.0932 -2.38796,2.52819 -2.38899,-2.52905 -0.0787,-0.0879 c -0.14625,-0.18272 -0.22449,-0.40465 -0.22449,-0.63503 0,-0.26876 0.10649,-0.52605 0.29635,-0.71591 0.19007,-0.19008 0.44744,-0.29676 0.7159,-0.29676 0.22382,0 0.44002,0.0741 0.61554,0.20868 l 0.10016,0.0879 0.4203,0.4203 0.0724,0.0639 c 0.27141,0.21104 0.65179,0.21489 0.92746,0.0118 l 0.0877,-0.0754 0.42018,-0.42058 0.0853,-0.0762 c 0.17833,-0.14197 0.40052,-0.22043 0.63043,-0.22043 z m -5.14111,1.01267 0.006,0.13641 -0.003,-0.0338 z m 0.62548,-1.35569 -0.10384,0.0958 c 0.0335,-0.0333 0.0681,-0.0653 0.10384,-0.0958 z m -16.31959,-1.84065 -1.46449,0.39241 c -0.40441,0.10837 -0.64329,0.52821 -0.53355,0.93776 0.10059,0.37542 0.4592,0.61186 0.82977,0.5652 l 0.10117,-0.0199 1.4645,-0.39241 c 0.40441,-0.10836 0.64329,-0.52821 0.53355,-0.93775 -0.10974,-0.40955 -0.52654,-0.65371 -0.93095,-0.54535 z m 36.71028,0.54535 c -0.1006,0.37541 0.0918,0.75949 0.436,0.90436 l 0.0975,0.0334 1.46449,0.39241 0.10118,0.0199 c 0.37057,0.0467 0.72918,-0.18978 0.82977,-0.5652 0.10059,-0.37542 -0.0917,-0.75949 -0.436,-0.90436 l -0.0976,-0.0334 -1.4645,-0.39241 c -0.40441,-0.10836 -0.82121,0.1358 -0.93094,0.54535 z m -16.24164,0.9074 -0.18466,0.0492 0.14112,-0.0396 z m 0.1008,-0.0183 -0.1008,0.0183 0.0174,-0.003 z m -6.02918,-6.94273 h -1.53846 c -0.42484,0 -0.76923,0.3444 -0.76923,0.76923 0,0.38944 0.28939,0.71128 0.66485,0.76221 l 0.10438,0.007 h 1.53846 c 0.42483,0 0.76923,-0.34439 0.76923,-0.76923 0,-0.42483 -0.3444,-0.76923 -0.76923,-0.76923 z"
               inkscape:connector-curvature="0" />
          </g>
        </g>
      </g>
    </g>
  </g>
</svg>
